<?xml version="1.0" encoding="utf-8"?>
<!-- Generator: Adobe Illustrator 27.0.0, SVG Export Plug-In . SVG Version: 6.00 Build 0)  -->
<svg version="1.1" id="Layer_1" xmlns="http://www.w3.org/2000/svg" xmlns:xlink="http://www.w3.org/1999/xlink" x="0px" y="0px"
	 viewBox="0 0 66 45.1" style="enable-background:new 0 0 66 45.1;" xml:space="preserve">
<style type="text/css">
	.st0{fill:#FFFFFF;}
	.st1{fill:#CC2B24;}
</style>
<path class="st0" d="M6.2,24.4H0.5v-8.8c0,0,0.1-2.5,1.3-3.6c1.4-1.4,3.3-1.4,3.3-1.4h10.5V5.4c0,0-0.2-2.5,1.3-4.1
	C18.4-0.2,20,0,20,0h26.5c0,0,2.2,0,3.5,1.6c1.3,1.6,1.1,3.8,1.1,3.8v5.3h10.7c0,0,2.4,0.1,3.3,1.4s0.9,3.4,0.9,3.4v9h-5.7V16h-9.4
	v8.4h-5.5v-19H21.1v19h-5.5V16H6.2V24.4z"/>
<ellipse class="st1" cx="37.5" cy="21" rx="3.3" ry="3.4"/>
<image style="overflow:visible;" width="471" height="122" xlink:href="67C8B53D6A9B33B8.png"  transform="matrix(0.1352 0 0 0.1352 1 26.8118)">
</image>
</svg>
