<?xml version="1.0" encoding="utf-8"?>
<!-- Generator: Adobe Illustrator 25.2.1, SVG Export Plug-In . SVG Version: 6.00 Build 0)  -->
<svg version="1.1" id="Layer_1" xmlns="http://www.w3.org/2000/svg" xmlns:xlink="http://www.w3.org/1999/xlink" x="0px" y="0px"
	 viewBox="0 0 330.94 241.09" style="enable-background:new 0 0 330.94 241.09;" xml:space="preserve">
<style type="text/css">
	.st0{fill:#CC2C24;}
	.st1{fill:#FFFFFF;}
</style>
<path class="st0" d="M183.79,98.33c-7.64,0-13.85,6.35-13.85,14.15c0,7.8,6.21,14.15,13.85,14.15c7.64,0,13.85-6.35,13.85-14.15
	C197.64,104.68,191.42,98.33,183.79,98.33"/>
<path class="st1" d="M283.37,68.63h-0.76h-40.45V47.52c0-12.9-10.48-23.36-23.4-23.36H218H112.93h-0.76
	c-12.92,0-23.4,10.46-23.4,23.36v21.11H48.31h-0.76c-12.92,0-23.4,10.46-23.4,23.36v34.64H47.8V91.66h41.4v34.97h23.73V47.19H218
	v79.44h23.65V91.66h41.47v34.97h23.65V91.99C306.77,79.09,296.3,68.63,283.37,68.63"/>
<g>
	<path class="st1" d="M47.8,158.43v15.3h-9v-15.3h-5.4v21.1h6.3c4.4,0,8.1,3.7,8.1,8.1v21.2c0,4.4-3.7,8.1-8.1,8.1h-7.2
		c-4.5,0-8.1-3.7-8.1-8.1v-15.3h9v15.3h5.4v-21.2h-6.3c-4.5,0-8.1-3.6-8.1-8.1v-21.1c0-4.5,3.6-8.1,8.1-8.1h7.2
		C44.1,150.33,47.8,153.93,47.8,158.43z"/>
	<path class="st1" d="M72.1,216.94h-7.2c-4.5,0-8.1-3.7-8.1-8.1v-58.6h9v58.6h5.4v-58.6h9v58.6C80.2,213.24,76.6,216.94,72.1,216.94
		z"/>
	<path class="st1" d="M89.2,150.23h11.7c6.5,0,11.8,5.3,11.8,11.7v14.4c0,3-1.2,5.6-3.1,7.5c1.9,2,3.1,4.8,3.1,7.8v14.5
		c0,6.4-5.3,10.8-11.8,10.8H89.2V150.23z M100.9,158.33h-2.7v21.2h2.7c1.5,0,2.7-1.2,2.7-2.7v-15.8
		C103.6,159.63,102.4,158.33,100.9,158.33z M100.9,209.24c1.5,0,2.7-1.2,2.7-2.7v-15.8c0-1.4-1.2-2.7-2.7-2.7h-2.7v21.2H100.9z"/>
	<path class="st1" d="M145.1,158.43v15.3h-9v-15.3h-5.4v21.1h6.3c4.4,0,8.1,3.7,8.1,8.1v21.2c0,4.4-3.7,8.1-8.1,8.1h-7.2
		c-4.5,0-8.1-3.7-8.1-8.1v-15.3h9v15.3h5.4v-21.2h-6.3c-4.5,0-8.1-3.6-8.1-8.1v-21.1c0-4.5,3.6-8.1,8.1-8.1h7.2
		C141.4,150.33,145.1,153.93,145.1,158.43z"/>
	<path class="st1" d="M154.1,208.84v-50.5c0-4.4,3.6-8.1,8.1-8.1h7.2c4.5,0,8.1,3.7,8.1,8.1v50.5c0,4.4-3.6,8.1-8.1,8.1h-7.2
		C157.7,216.94,154.1,213.24,154.1,208.84z M163.1,158.33v50.5h5.4v-50.5H163.1z"/>
	<path class="st1" d="M201.8,216.94h-7.2c-4.5,0-8.1-3.7-8.1-8.1v-50.5c0-4.4,3.6-8.1,8.1-8.1h7.2c4.4,0,8.1,3.7,8.1,8.1v15.3h-9
		v-15.3h-5.4v50.5h5.4v-15.4h9v15.4C209.9,213.24,206.2,216.94,201.8,216.94z"/>
	<path class="st1" d="M234.2,216.94H227c-4.5,0-8.1-3.7-8.1-8.1v-50.5c0-4.4,3.6-8.1,8.1-8.1h7.2c4.4,0,8.1,3.7,8.1,8.1v15.3h-9
		v-15.3h-5.4v50.5h5.4v-15.4h9v15.4C242.3,213.24,238.6,216.94,234.2,216.94z"/>
	<path class="st1" d="M274.8,173.63h-9v-15.3h-5.4v21.2h14.4v8.1h-14.4v21.2h5.4v-15.4h9v23.5h-23.5v-66.7h23.5V173.63z"/>
	<path class="st1" d="M283.69,150.23h11.7c6.5,0,11.7,5.3,11.7,11.7v14.4c0,3-1.1,5.5-2.9,7.3c1.8,2,2.9,4.6,2.9,7.6v25.7h-9v-26.6
		c0-1.5-1.2-2.7-2.7-2.7h-2.7v29.3h-9V150.23z M295.4,158.33h-2.7v21.2h2.7c1.5,0,2.7-1.2,2.7-2.7v-15.8
		C298.1,159.63,296.9,158.33,295.4,158.33z"/>
</g>
<g>
	<path class="st1" d="M319.75,154.87c0-1.16-0.95-2.11-2.11-2.11h-2.11c-0.47,0-0.84,0.38-0.84,0.84v7.59h1.69v-3.38h1.27
		c0.23,0,0.42,0.19,0.42,0.42v2.95h1.69v-2.95c0-0.47-0.16-0.91-0.42-1.27l0,0c0.27-0.35,0.42-0.79,0.42-1.27V154.87z
		 M316.38,154.35h1.27c0.23,0,0.42,0.19,0.42,0.42v1.05c0,0.23-0.19,0.42-0.42,0.42h-1.27V154.35z"/>
	<path class="st1" d="M315.11,163.73c-1.63,0-2.95-1.32-2.95-2.95v-7.59c0-1.63,1.32-2.95,2.95-2.95h4.22
		c1.63,0,2.95,1.32,2.95,2.95v7.59c0,1.63-1.32,2.95-2.95,2.95H315.11z M315.11,151.08c-1.16,0-2.11,0.95-2.11,2.11v7.59
		c0,1.16,0.95,2.11,2.11,2.11h4.22c1.16,0,2.11-0.95,2.11-2.11v-7.59c0-1.16-0.95-2.11-2.11-2.11H315.11z"/>
</g>
</svg>
