<svg width="38" height="38" viewBox="0 0 38 38" fill="none" xmlns="http://www.w3.org/2000/svg">
<path d="M37.5008 19.1982C37.5008 29.2922 29.318 37.475 19.2241 37.475C9.13006 37.475 0.947266 29.2922 0.947266 19.1982C0.947266 9.10418 9.13006 0.921387 19.2241 0.921387C29.318 0.921387 37.5008 9.10418 37.5008 19.1982Z" fill="#0085FF"/>
<path d="M37.5008 19.1982C37.5008 29.2922 29.318 37.475 19.2241 37.475C9.13006 37.475 0.947266 29.2922 0.947266 19.1982C0.947266 9.10418 9.13006 0.921387 19.2241 0.921387C29.318 0.921387 37.5008 9.10418 37.5008 19.1982Z" fill="url(#paint0_linear_598_6)"/>
<path d="M27.4484 27.688H10.7045C10.1494 27.688 9.61702 27.4675 9.22451 27.075C8.832 26.6825 8.61149 26.1501 8.61149 25.595V12.9461C8.63496 12.4069 8.8658 11.8976 9.25579 11.5246C9.64579 11.1516 10.1648 10.9436 10.7045 10.9441H27.4484C28.0035 10.9441 28.5358 11.1646 28.9283 11.5571C29.3208 11.9497 29.5414 12.482 29.5414 13.0371V25.595C29.5414 26.1501 29.3208 26.6825 28.9283 27.075C28.5358 27.4675 28.0035 27.688 27.4484 27.688ZM10.7045 14.992V25.595H27.4484V14.992L19.0764 20.5719L10.7045 14.992ZM11.5417 13.0371L19.0764 18.0603L26.6112 13.0371H11.5417Z" fill="white"/>
<defs>
<linearGradient id="paint0_linear_598_6" x1="-24.5793" y1="-143.369" x2="56.1486" y2="-133.709" gradientUnits="userSpaceOnUse">
<stop offset="0.317174" stop-color="#429ABE"/>
<stop offset="1" stop-color="#005071"/>
</linearGradient>
</defs>
</svg>
