<svg width="38" height="38" viewBox="0 0 38 38" fill="none" xmlns="http://www.w3.org/2000/svg">
<path d="M37.5008 19.2115C37.5008 29.3055 29.318 37.4883 19.2241 37.4883C9.13006 37.4883 0.947266 29.3055 0.947266 19.2115C0.947266 9.11749 9.13006 0.934692 19.2241 0.934692C29.318 0.934692 37.5008 9.11749 37.5008 19.2115Z" fill="#0085FF"/>
<path d="M37.5008 19.2115C37.5008 29.3055 29.318 37.4883 19.2241 37.4883C9.13006 37.4883 0.947266 29.3055 0.947266 19.2115C0.947266 9.11749 9.13006 0.934692 19.2241 0.934692C29.318 0.934692 37.5008 9.11749 37.5008 19.2115Z" fill="url(#paint0_linear_598_5)"/>
<path d="M16.11 24.7451L15.1549 25.6943C14.7548 26.0882 14.2159 26.3089 13.6544 26.3089C13.093 26.3089 12.5541 26.0882 12.154 25.6943C11.9589 25.5011 11.804 25.2712 11.6983 25.0178C11.5926 24.7644 11.5382 24.4926 11.5382 24.218C11.5382 23.9435 11.5926 23.6716 11.6983 23.4182C11.804 23.1648 11.9589 22.9349 12.154 22.7417L15.6678 19.2573C16.3954 18.5344 17.7655 17.4708 18.7643 18.4613C18.8717 18.5759 19.0012 18.6677 19.1449 18.7312C19.2887 18.7947 19.4437 18.8285 19.6008 18.8308C19.7579 18.833 19.9138 18.8036 20.0593 18.7442C20.2048 18.6849 20.3368 18.5968 20.4475 18.4853C20.5582 18.3738 20.6453 18.2412 20.7036 18.0953C20.762 17.9494 20.7903 17.7932 20.7869 17.6361C20.7836 17.4791 20.7486 17.3243 20.6841 17.181C20.6196 17.0377 20.5269 16.9089 20.4115 16.8022C18.7159 15.1184 16.2067 15.4297 14.0217 17.5982L10.5079 21.0838C10.0927 21.4931 9.7633 21.9812 9.53897 22.5193C9.31464 23.0575 9.19987 23.635 9.20139 24.218C9.19994 24.8011 9.31473 25.3785 9.53906 25.9167C9.76339 26.4548 10.0927 26.9429 10.5079 27.3522C11.3447 28.1823 12.4763 28.647 13.655 28.6446C14.7953 28.6446 15.9355 28.2142 16.8022 27.3522L17.7584 26.403C17.8675 26.2952 17.9542 26.1668 18.0135 26.0254C18.0729 25.884 18.1037 25.7322 18.1042 25.5788C18.1048 25.4254 18.075 25.2735 18.0167 25.1316C17.9584 24.9898 17.8726 24.8608 17.7643 24.7522C17.5455 24.5327 17.2486 24.4088 16.9386 24.4074C16.6287 24.4061 16.3308 24.5275 16.11 24.7451ZM26.76 11.2036C24.9359 9.39472 22.3866 9.29685 20.7004 10.9713L19.5107 12.1528C19.2908 12.3711 19.1667 12.6678 19.1656 12.9776C19.1645 13.2874 19.2865 13.585 19.5048 13.8048C19.723 14.0247 20.0197 14.1488 20.3295 14.1499C20.6393 14.151 20.9369 14.029 21.1567 13.8107L22.3477 12.6304C23.2203 11.7625 24.3652 12.1221 25.114 12.8626C25.5102 13.2577 25.7295 13.7812 25.7295 14.339C25.7295 14.8967 25.5102 15.4203 25.114 15.8141L21.3643 19.5332C19.6498 21.2324 18.8456 20.4364 18.5025 20.0957C18.3936 19.9876 18.2645 19.902 18.1226 19.8438C17.9807 19.7856 17.8287 19.7559 17.6753 19.7565C17.5219 19.757 17.3701 19.7878 17.2286 19.847C17.0871 19.9062 16.9586 19.9927 16.8505 20.1016C16.7424 20.2104 16.6568 20.3395 16.5986 20.4814C16.5404 20.6234 16.5108 20.7754 16.5113 20.9288C16.5119 21.0822 16.5426 21.234 16.6018 21.3755C16.661 21.517 16.7475 21.6455 16.8564 21.7536C17.6441 22.5342 18.5426 22.9209 19.4835 22.9209C20.6356 22.9209 21.8536 22.3408 23.0127 21.1911L26.7624 17.4732C27.1767 17.0632 27.5054 16.5751 27.7295 16.037C27.9536 15.499 28.0685 14.9218 28.0677 14.339C28.0688 13.7557 27.9537 13.1781 27.7292 12.6398C27.5047 12.1014 27.1752 11.6132 26.76 11.2036Z" fill="white"/>
<defs>
<linearGradient id="paint0_linear_598_5" x1="-24.5793" y1="-143.356" x2="56.1486" y2="-133.696" gradientUnits="userSpaceOnUse">
<stop offset="0.317174" stop-color="#429ABE"/>
<stop offset="1" stop-color="#005071"/>
</linearGradient>
</defs>
</svg>
