<svg width="19" height="19" viewBox="0 0 19 19" fill="none" xmlns="http://www.w3.org/2000/svg">
<path d="M13.7924 11.8224L17.8499 7.67548C17.9875 7.53487 18.0372 7.32437 17.9777 7.13283C17.9183 6.94108 17.7604 6.80132 17.5701 6.77241L11.9631 5.91869L9.45517 0.591479C9.37014 0.410739 9.19462 0.296387 9.00245 0.296387C8.81028 0.296387 8.63466 0.410951 8.54974 0.591479L6.04268 5.91869L0.434789 6.77241C0.244634 6.80132 0.0865932 6.94119 0.0272141 7.13283C-0.0322661 7.32437 0.0173175 7.53487 0.15496 7.67548L4.21253 11.8224L3.2552 17.6776C3.22268 17.8761 3.30054 18.0768 3.45606 18.1952C3.61137 18.3137 3.81738 18.3294 3.98774 18.2356L9.00265 15.4715L14.0176 18.2356C14.0914 18.2763 14.1721 18.2963 14.2524 18.2963C14.3571 18.2963 14.4612 18.2622 14.5491 18.1952C14.7047 18.077 14.7826 17.8761 14.75 17.6776L13.7924 11.8224Z" fill="#CC2B24"/>
</svg>
