<svg width="10" height="11" viewBox="0 0 10 11" fill="none" xmlns="http://www.w3.org/2000/svg">
<path d="M4.8125 5.5C6.33145 5.5 7.5625 4.26895 7.5625 2.75C7.5625 1.23105 6.33145 0 4.8125 0C3.29355 0 2.0625 1.23105 2.0625 2.75C2.0625 4.26895 3.29355 5.5 4.8125 5.5ZM6.7375 6.1875H6.37871C5.90176 6.40664 5.37109 6.53125 4.8125 6.53125C4.25391 6.53125 3.72539 6.40664 3.24629 6.1875H2.8875C1.29336 6.1875 0 7.48086 0 9.075V9.96875C0 10.5381 0.461914 11 1.03125 11H8.59375C9.16309 11 9.625 10.5381 9.625 9.96875V9.075C9.625 7.48086 8.33164 6.1875 6.7375 6.1875Z" fill="white"/>
</svg>
