<svg width="40" height="40" viewBox="0 0 40 40" fill="none" xmlns="http://www.w3.org/2000/svg">
<path d="M10.6671 33.882L11.3102 34.2027C13.9902 35.8055 16.9915 36.5536 19.9929 36.5536C29.4257 36.5536 37.1435 28.8596 37.1435 19.4559C37.1435 14.9678 35.3212 10.5865 32.1055 7.38069C28.8897 4.17483 24.602 2.35828 19.9929 2.35828C10.56 2.35828 2.84209 10.0522 2.94935 19.5628C2.94935 22.7685 3.91407 25.8676 5.52189 28.539L5.95062 29.1803L4.23569 35.485L10.6671 33.882Z" fill="#00E676"/>
<path d="M33.7968 5.76507C30.1373 2.02852 25.0786 0 19.9121 0C8.93367 0 0.107701 8.8611 0.215249 19.6439C0.215249 23.0603 1.18394 26.37 2.79854 29.3592L0 39.5014L10.4404 36.8324C13.3465 38.4339 16.5754 39.1813 19.8046 39.1813C30.6755 39.1813 39.5014 30.32 39.5014 19.5374C39.5014 14.306 37.4563 9.39494 33.797 5.76507H33.7968ZM19.9121 35.8717C17.006 35.8717 14.0999 35.1245 11.6244 33.6299L10.9786 33.3095L4.73593 34.9109L6.35037 28.8256L5.91988 28.185C1.18394 20.605 3.44429 10.5693 11.1939 5.87174C18.9434 1.17435 28.9533 3.41637 33.6893 11.1031C38.425 18.7899 36.1647 28.7187 28.4153 33.4162C25.9395 35.0176 22.9259 35.8716 19.9121 35.8716V35.8717ZM29.3838 24.0214L28.1999 23.4876C28.1999 23.4876 26.4779 22.7402 25.4015 22.2064C25.2938 22.2064 25.1863 22.0996 25.0786 22.0996C24.7556 22.0996 24.5403 22.2064 24.3251 22.3132C24.3251 22.3132 24.2176 22.4199 22.7107 24.1281C22.603 24.3416 22.3877 24.4484 22.1725 24.4484H22.0648C21.9572 24.4484 21.742 24.3416 21.6343 24.2349L21.0961 24.0214C19.9121 23.4876 18.8359 22.8469 17.9747 21.9929C17.7595 21.7794 17.4365 21.5659 17.2213 21.3524C16.4678 20.605 15.7144 19.7509 15.1763 18.79L15.0686 18.5765C14.9611 18.4697 14.9611 18.363 14.8534 18.1495C14.8534 17.936 14.8534 17.7225 14.9611 17.6157C14.9611 17.6157 15.3916 17.0818 15.7144 16.7617C15.9298 16.548 16.0373 16.2278 16.2526 16.0143C16.4678 15.694 16.5755 15.267 16.4678 14.9467C16.3603 14.4128 15.0686 11.5303 14.7458 10.8898C14.5304 10.5694 14.3153 10.4628 13.9924 10.3559H12.8085C12.593 10.3559 12.378 10.4628 12.1625 10.4628L12.0548 10.5694C11.8396 10.6763 11.6244 10.8898 11.4091 10.9964C11.1939 11.2101 11.0862 11.4235 10.8709 11.6371C10.1175 12.598 9.68696 13.7723 9.68696 14.9467C9.68696 15.8007 9.90221 16.6548 10.2252 17.4022L10.3329 17.7225C11.3016 19.7509 12.593 21.5659 14.3153 23.1672L14.7458 23.5942C15.0686 23.9146 15.3916 24.1281 15.6068 24.4483C17.8672 26.3701 20.4503 27.758 23.3564 28.5053C23.6794 28.612 24.1099 28.612 24.4328 28.7188H25.509C26.0472 28.7188 26.693 28.5053 27.1236 28.2918C27.4464 28.0783 27.6617 28.0783 27.8769 27.8648L28.0923 27.6511C28.3076 27.4376 28.5228 27.331 28.7381 27.1174C28.9533 26.9039 29.1686 26.6904 29.2763 26.4768C29.4915 26.0498 29.5991 25.5159 29.7068 24.9823V24.2349C29.7068 24.2349 29.5991 24.1281 29.3838 24.0214Z" fill="white"/>
</svg>
